<mxfile host="app.diagrams.net" modified="2022-11-30T08:07:53.951Z" agent="5.0 (Windows NT 10.0; Win64; x64) AppleWebKit/537.36 (KHTML, like Gecko) Chrome/107.0.0.0 Safari/537.36" version="20.6.0" etag="D_umLnwwnMKgIyWnyQwh" type="github">
  <diagram id="JTp5BJ7KARsa908FnoLr" name="Page-1">
    <mxGraphModel dx="1247" dy="786" grid="1" gridSize="10" guides="1" tooltips="1" connect="1" arrows="1" fold="1" page="1" pageScale="1" pageWidth="850" pageHeight="1100" math="0" shadow="0">
      <root>
        <mxCell id="0" />
        <mxCell id="1" parent="0" />
      </root>
    </mxGraphModel>
  </diagram>
</mxfile>
